<svg xmlns="http://www.w3.org/2000/svg" viewBox="0 0 320 240" role="img" aria-label="Vorschau Standardbrett">
  <defs>
    <linearGradient id="bg" x1="0" y1="0" x2="0" y2="1">
      <stop offset="0%" stop-color="#eef9ef"/>
      <stop offset="100%" stop-color="#d7ebcc"/>
    </linearGradient>
    <linearGradient id="trail" x1="0" y1="0" x2="1" y2="1">
      <stop offset="0%" stop-color="#f5e3bc"/>
      <stop offset="100%" stop-color="#f2d8a2"/>
    </linearGradient>
  </defs>
  <rect width="320" height="240" rx="28" fill="url(#bg)"/>
  <path d="M16 214V170Q48 160 70 168T132 165T208 160T304 176V214Z" fill="#c6e1b8"/>
  <path d="M42 196 Q68 180 94 170 T152 144 T228 94 T286 46" fill="none" stroke="#9b7c53" stroke-width="18" stroke-linecap="round" stroke-linejoin="round"/>
  <path d="M42 196 Q68 180 94 170 T152 144 T228 94 T286 46" fill="none" stroke="url(#trail)" stroke-width="14" stroke-linecap="round" stroke-linejoin="round"/>
  <path d="M42 196 Q68 180 94 170 T152 144 T228 94 T286 46" fill="none" stroke="rgba(255,255,255,0.8)" stroke-width="2" stroke-dasharray="1 9" stroke-linecap="round"/>
  <g fill="#fffaf1" stroke="#bca67b" stroke-width="2">
    <circle cx="42" cy="196" r="13"/>
    <circle cx="71" cy="179" r="13"/>
    <circle cx="102" cy="169" r="13"/>
    <circle cx="135" cy="159" r="13"/>
    <circle cx="170" cy="144" r="13"/>
    <circle cx="202" cy="120" r="13"/>
    <circle cx="232" cy="96" r="13"/>
    <circle cx="259" cy="73" r="13"/>
    <circle cx="286" cy="46" r="13"/>
  </g>
  <circle cx="42" cy="196" r="13" fill="none" stroke="#2f8f57" stroke-width="4"/>
  <circle cx="286" cy="46" r="13" fill="none" stroke="#d67d1a" stroke-width="4"/>
  <circle cx="202" cy="120" r="13" fill="none" stroke="#8554ff" stroke-width="4" stroke-dasharray="4 3"/>
  <text x="42" y="200" text-anchor="middle" font-family="Arial, sans-serif" font-size="8" font-weight="700" fill="#2d4133">0</text>
  <text x="286" y="50" text-anchor="middle" font-family="Arial, sans-serif" font-size="8" font-weight="700" fill="#2d4133">35</text>
  <text x="28" y="28" font-family="Arial, sans-serif" font-size="17" font-weight="700" fill="#314034">Wortgarten</text>
  <text x="28" y="215" font-family="Arial, sans-serif" font-size="12" font-weight="600" fill="#5f7258">36 Felder · geschwungener Pfad · direkte Lernfelder</text>
</svg>
